<svg version="1.1" xmlns="http://www.w3.org/2000/svg" xmlns:xlink="http://www.w3.org/1999/xlink" width="164.67644" height="107.68582" viewBox="0,0,164.67644,107.68582"><g transform="translate(-205.37061,-152.91873)"><g data-paper-data="{&quot;isPaintingLayer&quot;:true}" fill-rule="evenodd" stroke="#000000" stroke-width="0.5" stroke-linecap="butt" stroke-linejoin="miter" stroke-miterlimit="10" stroke-dasharray="" stroke-dashoffset="0" style="mix-blend-mode: normal"><g><path d="M211.66984,202.67785c0.39103,-0.24608 1.07626,-0.34668 1.52245,-0.22391c0.44619,0.12277 2.51488,0.71228 4.59709,1.30936c9.53546,2.73663 21.61177,3.42619 33.34518,1.90374c15.18502,-1.96972 18.25155,-0.0703 18.73884,11.60903c0.28502,6.83237 -0.67442,10.90972 -3.57492,15.19043c-2.43917,3.60088 -7.35535,7.08115 -12.41378,8.78857c-3.31748,1.11953 -4.66687,1.2331 -15.00276,1.2623l-11.35753,0.03245l-0.27042,2.67875c-0.24013,2.37697 -0.42401,2.69606 -1.63873,2.83776c-1.75771,0.20497 -7.2937,-4.69715 -10.185,-9.01842c-3.73609,-5.58574 -4.06654,-7.31912 -4.28071,-22.456c-0.15143,-10.70096 -0.04434,-13.55927 0.52029,-13.91406M227.25399,223.51135v-5.6209h12.19042c11.03303,0 12.38727,0.10059 14.26451,1.05841c2.29909,1.17253 2.94971,2.8502 2.1655,5.58412c-0.99892,3.48352 -3.48081,4.87454 -10.51491,5.89131c-3.45161,0.49919 -5.90375,0.50892 -10.37213,0.04164c-3.21905,-0.3364 -6.27531,-0.77448 -6.79289,-0.97296c-0.81017,-0.31044 -0.94051,-1.14061 -0.94051,-5.98163" fill="#ffffff"/><path d="M363.00354,154.39373c1.93349,-0.72255 3.86751,-1.27258 4.29747,-1.22174c1.04543,0.12331 2.83289,3.25636 2.44079,4.27746c-0.35587,0.92862 -5.04761,3.47432 -5.90159,3.20282c-0.31152,-0.09951 -0.39643,-0.01082 -0.18929,0.19687c0.20768,0.20714 -1.0238,1.42997 -2.73609,2.7177c-1.71283,1.28718 -4.05085,3.43971 -5.19634,4.78368c-1.14549,1.34398 -2.29314,2.31369 -2.55057,2.15469c-0.25689,-0.15847 -0.40022,-0.05517 -0.31856,0.23039c0.139,0.48621 -3.21039,6.54139 -3.94593,7.13307c-0.18442,0.14873 -0.49541,0.92266 -0.69065,1.71985c-0.1947,0.79719 -0.73608,1.83181 -1.20336,2.29855c-0.46674,0.46728 -0.70687,0.84911 -0.53326,0.84911c0.46945,0 -3.52138,7.77667 -4.22825,8.23962c-0.33423,0.21849 -0.40941,0.40076 -0.1682,0.40563c0.24176,0.00432 -0.21904,1.21796 -1.0238,2.69661c-0.80476,1.47865 -1.63116,2.5841 -1.83613,2.45755c-0.20551,-0.12709 -0.37372,0.11087 -0.37372,0.52839c0,0.99135 -2.49163,5.6831 -3.0184,5.6831c-0.22391,0 -0.4067,0.37966 -0.4067,0.84316c0,0.52137 -0.25798,0.69497 -0.67604,0.45431c-0.37156,-0.21417 -0.50297,-0.19741 -0.29205,0.03624c0.21146,0.23418 -0.00703,1.18605 -0.48513,2.11521c-1.51272,2.9389 -6.12982,9.53113 -6.67552,9.53113c-0.28881,0 -0.52461,0.26015 -0.52461,0.5787c0,0.64954 -2.60574,4.52624 -4.15523,6.18174c-0.55652,0.59492 -1.57167,1.87562 -2.25582,2.84588c-0.68361,0.97026 -1.50568,1.60195 -1.8264,1.40347c-0.34235,-0.21147 -0.42672,-0.10763 -0.20497,0.25149c0.43483,0.70362 -9.88484,11.55548 -10.57982,11.12552c-0.24662,-0.15197 -0.45646,0.04218 -0.46674,0.43158c-0.01893,0.71985 -8.86969,7.81885 -11.3386,9.09468c-0.74365,0.38453 -1.47377,0.86479 -1.6225,1.06706c-0.42509,0.57815 -8.62415,4.83074 -9.63714,4.9984c-0.50027,0.08275 -1.05949,0.35587 -1.24284,0.60682c-0.46133,0.63116 -7.67715,3.0184 -8.18121,2.70688c-0.22499,-0.139 -0.40887,-0.02813 -0.40887,0.24607c0,0.45538 -4.6885,1.67822 -7.30127,1.90483c-0.59492,0.05192 -1.25527,0.33748 -1.46783,0.63494c-0.52299,0.73392 -25.20723,0.73175 -25.7286,-0.00217c-0.21255,-0.29854 -1.11628,-0.61493 -2.00866,-0.70362c-3.97243,-0.39427 -12.50302,-3.8502 -16.73289,-6.77882c-2.99244,-2.07194 -9.03952,-8.43973 -8.63497,-9.0936c0.21363,-0.34614 0.15089,-0.47972 -0.14061,-0.29962c-1.2807,0.79124 -6.17525,-10.26342 -6.32344,-14.28128c-0.04272,-1.15252 -0.2596,-2.09735 -0.48297,-2.09898c-0.22337,-0.00162 -0.40562,-7.54789 -0.40562,-16.76913c0,-10.8167 0.19199,-16.76588 0.54083,-16.76588c0.29746,0 0.48026,-0.30448 0.40563,-0.67604c-0.07409,-0.37156 0.18713,-0.60898 0.58086,-0.52732c0.39427,0.08166 0.57707,-0.07734 0.4067,-0.35262c-0.33478,-0.54191 2.8356,-2.61332 4.40564,-2.87887c0.52893,-0.08924 1.09681,-0.34343 1.26231,-0.56517c0.16549,-0.22174 0.9562,-0.45755 1.75772,-0.52353c0.80151,-0.06653 1.45701,-0.28448 1.45701,-0.48459c0,-0.20011 0.79124,-0.50244 1.75771,-0.67172c0.96647,-0.16928 3.58303,-0.61872 5.81397,-0.99838c4.38401,-0.74635 26.24401,-0.94051 31.36843,-0.27853c5.0898,0.65712 9.14227,1.65387 8.82372,2.16983c-0.1682,0.27204 0.15035,0.34992 0.70849,0.17307c0.5576,-0.17685 1.71121,0.04056 2.56302,0.48296c0.85235,0.44241 1.88643,0.80423 2.29854,0.80423c0.41211,0 0.7496,0.25798 0.7496,0.57274c0,0.31476 0.24716,0.41969 0.54948,0.2331c0.69389,-0.42888 4.46135,3.39211 4.03139,4.08763c-0.17469,0.2834 -0.06003,0.51487 0.25474,0.51487c0.89238,0 0.75879,28.4993 -0.15576,33.26135c-0.62412,3.2515 -3.02381,9.1466 -4.07465,10.01032c-0.18442,0.15089 -0.94322,0.99567 -1.68687,1.87615c-0.99838,1.18281 -1.06977,1.39373 -0.27258,0.80693c0.59384,-0.43753 1.40454,-1.10168 1.80152,-1.47594c0.39697,-0.3748 0.9827,-0.51974 1.30233,-0.32233c0.33207,0.20551 0.42455,0.10654 0.21633,-0.2304c-0.20011,-0.32396 0.19362,-1.15252 0.87507,-1.841c1.6993,-1.71715 4.43268,-7.21906 5.22284,-10.51383l0.65333,-2.7231l3.95026,-0.61385c4.00326,-0.6225 7.92485,-1.7377 10.83724,-3.08167c0.87994,-0.40616 1.79287,-0.6198 2.02814,-0.47485c0.23472,0.14549 0.42726,0.06599 0.42726,-0.17631c0,-0.2423 0.79124,-0.78908 1.75771,-1.21472c2.48568,-1.09411 7.76855,-4.22608 8.69987,-5.1574c0.43104,-0.43105 1.06761,-0.85344 1.41429,-0.93835c0.34722,-0.08491 2.13089,-1.55436 3.96486,-3.26448c1.83397,-1.71012 3.58411,-3.1271 3.88914,-3.1482c0.30557,-0.02164 2.38075,-2.10385 4.61169,-4.62792c2.23095,-2.52408 4.50462,-5.07573 5.05194,-5.67065c0.54787,-0.59492 2.91889,-3.68417 5.26882,-6.86482c2.34992,-3.18119 4.45756,-6.02868 4.68309,-6.32776c0.22553,-0.29962 1.48784,-2.12494 2.80477,-4.05626c5.97893,-8.76801 12.67068,-16.50087 13.71882,-15.85295c0.30178,0.18659 0.39103,0.08329 0.19741,-0.22931c-0.50892,-0.82423 6.33913,-5.30775 10.46028,-6.84859M223.73857,188.37979c3.98163,-0.70579 33.80218,-0.94213 33.80218,-0.26825c0,0.19687 1.88644,0.68524 4.19148,1.08437c2.30504,0.39914 4.43484,0.91131 4.7323,1.13792c0.29746,0.22661 1.02758,0.49594 1.6225,0.5987c0.59492,0.10276 1.65063,0.69984 2.34614,1.32721c1.72202,1.55382 1.3721,3.39645 -0.89616,4.7177c-2.15468,1.25474 -8.61983,3.08546 -11.99626,3.39644c-1.33857,0.12385 -3.40726,0.3483 -4.59709,0.49973c-6.20013,0.78908 -16.25371,0.82207 -23.52632,0.07788c-4.31316,-0.44186 -8.0249,-0.69065 -8.24773,-0.55328c-0.22283,0.13683 -0.40563,-0.00866 -0.40563,-0.32342c0,-0.31476 -0.53055,-0.57274 -1.17847,-0.57274c-2.23094,0 -7.96434,-2.1893 -9.34239,-3.56734c-1.26068,-1.26068 -1.02217,-2.18552 0.95187,-3.69066c1.86047,-1.41969 6.07898,-2.71877 12.54358,-3.86426M211.38968,202.02614c0.55381,-0.55381 1.31856,-0.44348 4.24393,0.61331c2.72419,0.98378 5.99786,1.75393 11.84591,2.78746c4.27638,0.75555 19.54955,0.72093 23.13907,-0.05246c4.36562,-0.94051 12.90487,-0.89832 14.80644,0.07301c3.49649,1.78692 4.50732,4.14982 4.94918,11.56683c0.28231,4.74582 -0.39211,9.71609 -1.62304,11.96327c-0.32612,0.59492 -0.93077,1.75069 -1.34398,2.56842c-1.34235,2.65821 -5.84264,6.67498 -9.38187,8.37537c-5.36508,2.57708 -8.79452,3.11791 -19.77184,3.11791c-5.4024,0 -9.99841,0.17469 -10.21366,0.38886c-0.21525,0.21363 -0.4689,1.25312 -0.56355,2.30991c-0.09518,1.05679 -0.33478,2.18389 -0.53327,2.50514c-0.52731,0.85289 -3.1958,0.16334 -4.89023,-1.26447c-3.59655,-3.02975 -7.77883,-7.6274 -7.77883,-8.55114c0,-0.31044 -0.3629,-1.11791 -0.80639,-1.79504c-2.06437,-3.15036 -2.42672,-6.19256 -2.43267,-20.40948c-0.00324,-7.61008 0.1563,-13.99897 0.35478,-14.19691M227.97438,218.74335c0.1417,-0.36885 1.89292,-0.53651 4.75448,-0.45485c2.49162,0.07085 8.05952,0.20281 12.37268,0.29259c8.22934,0.17199 9.9254,0.61601 10.48192,2.74312c0.75609,2.89076 -1.36399,6.14659 -5.05248,7.76044c-2.38887,1.04489 -20.49223,1.16875 -21.12555,0.14441c-0.20876,-0.33802 -0.59546,-0.59222 -0.85993,-0.56464c-0.48135,0.04922 -0.99244,-8.82263 -0.57112,-9.92107" fill="#e41d89"/><path d="M211.36481,202.10023c0.35533,-0.57437 1.90536,-0.54029 2.85831,0.06328c0.52029,0.32937 0.14657,0.46403 -1.18335,0.42618c-1.06869,-0.03028 -1.82262,-0.25041 -1.67497,-0.48945M216.16688,203.28791c-0.71336,-0.30666 -0.8053,-0.47485 -0.27042,-0.49433c0.44619,-0.01676 1.17632,0.20606 1.62251,0.49433c0.98864,0.63872 0.13466,0.63872 -1.35209,0M219.95272,204.36958c-0.682,-0.29313 -0.78151,-0.46458 -0.27042,-0.46458c0.44619,0 1.298,0.20876 1.89292,0.46458c0.682,0.29313 0.78151,0.46457 0.27042,0.46457c-0.44619,0 -1.298,-0.20876 -1.89292,-0.46457M257.94637,204.7606c-0.96647,-0.11953 -0.17578,-0.21796 1.75771,-0.21796c1.93349,0 2.72419,0.09843 1.75772,0.21796c-0.96647,0.12007 -2.54895,0.12007 -3.51542,0M224.6953,205.28521c-0.52623,-0.13737 -0.22661,-0.25852 0.66577,-0.26934c0.89238,-0.01082 1.32288,0.10113 0.95673,0.24932c-0.36614,0.14819 -1.09627,0.15739 -1.6225,0.02002M252.26761,205.28305c-0.52083,-0.13575 -0.09464,-0.24716 0.94646,-0.24716c1.0411,0 1.46729,0.11141 0.94646,0.24716c-0.52083,0.13629 -1.3721,0.13629 -1.89292,0M234.93709,206.39284c-1.9946,-0.10384 -0.21958,-0.18821 3.94485,-0.18713c4.16443,0.00054 5.79667,0.08545 3.62684,0.18821c-2.16929,0.1033 -5.57655,0.10222 -7.57169,-0.00108M267.0497,207.12297c-0.56301,-0.62196 -0.84641,-1.13089 -0.63061,-1.13089c0.97188,0 3.05787,3.10277 2.97621,4.42619c-0.02434,0.39157 -0.33153,0.06436 -0.68307,-0.72634c-0.35154,-0.79124 -1.09951,-1.94755 -1.66253,-2.56897M270.17735,218.7017c-0.00108,-2.97459 0.08816,-4.2607 0.19957,-2.85777c0.11087,1.40347 0.11195,3.83722 0.00216,5.40835c-0.10925,1.57166 -0.20011,0.42401 -0.20173,-2.55058M227.25399,223.56921c0,-3.12332 0.1828,-5.6793 0.40562,-5.6793c0.22283,-0.00054 0.40563,2.49379 0.40563,5.54356c0,4.14658 0.17036,5.51002 0.67604,5.40888c0.3721,-0.07409 0.67604,0.13413 0.67604,0.4635c0,0.32937 -0.38507,0.45106 -0.8556,0.27042c-0.47053,-0.18064 -0.95728,-0.32828 -1.08167,-0.32828c-0.12439,0 -0.22607,-2.55545 -0.22607,-5.67877M231.03984,218.23712c-1.0411,-0.09086 3.21796,-0.20227 9.46461,-0.2477c6.24665,-0.04543 11.63876,0.09627 11.98327,0.31476c0.57545,0.36614 -17.11039,0.31044 -21.44788,-0.06706M254.34333,219.61842c-0.72851,-0.5987 -0.67442,-0.61655 0.35804,-0.11628c0.66956,0.3245 1.19741,1.00703 1.17415,1.51704c-0.03462,0.75176 -0.10221,0.77394 -0.35803,0.11628c-0.17361,-0.44619 -0.70201,-1.12872 -1.17416,-1.51704M255.58346,223.7558c0.18821,-0.9416 0.45809,-1.59546 0.59979,-1.45377c0.91888,0.91888 -2.25582,6.40511 -3.70688,6.40511c-0.30232,0 0.19633,-0.72905 1.10763,-1.62034c0.9113,-0.89076 1.81125,-2.38995 1.99946,-3.331M268.96101,226.90508c0.03461,-0.34722 0.17901,-0.18009 0.32126,0.3721c0.14224,0.55219 -0.04381,1.28232 -0.41266,1.6225c-0.52083,0.48026 -0.59276,0.39643 -0.32126,-0.3721c0.19254,-0.54462 0.37804,-1.27475 0.41266,-1.6225M211.12089,229.5184c0.01298,-0.86966 0.10059,-0.81666 0.44889,0.27042c0.59222,1.84912 0.59222,3.27096 0,1.89292c-0.25582,-0.59492 -0.45755,-1.56842 -0.44889,-2.16334M233.74401,230.3648c-2.03245,-0.27258 -0.23364,-0.38832 5.67876,-0.3656c5.25097,0.02001 7.80263,0.1855 6.49002,0.42076c-2.72581,0.48891 -8.29695,0.46404 -12.16879,-0.05516M212.12738,233.57466c0,-0.72093 0.05787,-0.72093 0.52407,0c0.28826,0.44619 0.52407,1.17631 0.52407,1.6225c0,0.72093 -0.05787,0.72093 -0.52407,0c-0.28826,-0.44619 -0.52407,-1.17631 -0.52407,-1.6225M262.13081,236.83103c0.40671,-0.65766 0.81828,-0.72094 0.81828,-0.12548c0,0.49053 -5.47162,3.90266 -6.2461,3.89509c-0.28285,-0.00324 0.74581,-0.72796 2.28611,-1.61169c1.5403,-0.88318 2.95404,-1.85452 3.14171,-2.15793M214.30208,238.31183c0.01568,-0.3748 0.42293,-0.07247 0.90536,0.67118c0.48189,0.74365 2.66469,3.11629 4.8502,5.27314c3.90915,3.8567 4.81289,5.09466 1.97351,2.70417c-3.8237,-3.21959 -7.77126,-7.63713 -7.72907,-8.64849M254.02532,241.14635c1.48838,-0.63981 2.01785,-0.63981 1.6225,0c-0.18389,0.29746 -0.8675,0.52352 -1.5192,0.50297c-1.14225,-0.03678 -1.14603,-0.05462 -0.1033,-0.50297M227.61473,242.58875c0.19795,-0.19849 1.23256,-0.3245 2.29855,-0.27961c1.83506,0.0768 1.85181,0.09356 0.3153,0.31801c-0.89238,0.13088 -1.92645,0.48891 -2.29854,0.79665c-0.6993,0.57815 -0.98162,-0.16928 -0.31531,-0.83505M238.4947,243.16799c-1.57166,-0.10925 -0.42401,-0.20011 2.55058,-0.20173c2.97459,-0.00108 4.2607,0.08816 2.85777,0.19957c-1.40347,0.11087 -3.83723,0.11195 -5.40835,0.00216M225.63149,248.1772c0.74365,-0.23797 1.42727,-0.45701 1.5192,-0.48675c0.09194,-0.02974 0.01677,0.18929 -0.16711,0.48675c-0.18389,0.29746 -0.8675,0.51649 -1.5192,0.48675c-1.10331,-0.04976 -1.09141,-0.08383 0.16711,-0.48675" fill="#e65da8"/></g></g></g></svg>